<svg height="512" viewBox="0 0 64 64" width="512" xmlns="http://www.w3.org/2000/svg"><path d="m15 18.46v2.54l-2 2-2-2v-2.54a7.971 7.971 0 0 0 4 0z" fill="#ffb655"/><path d="m47 12h8a0 0 0 0 1 0 0v4a4 4 0 0 1 -4 4 4 4 0 0 1 -4-4v-4a0 0 0 0 1 0 0z" fill="#ffc477"/><path d="m59 59v2h-6l-2-1v-3h6a2.006 2.006 0 0 1 2 2z" fill="#5aaae7"/><path d="m59 34v2.5a1.5 1.5 0 0 1 -3 0v-2.5z" fill="#ffc477"/><path d="m47 34h-4v-6a5.984 5.984 0 0 1 2.72-5.02 5.715 5.715 0 0 1 2.29-.89c.07 1.06 1.38 1.91 2.99 1.91s2.92-.85 2.99-1.91a5.715 5.715 0 0 1 2.29.89 5.984 5.984 0 0 1 2.72 5.02v6h-4l2 11h-12z" fill="#00ccb3"/><path d="m51 45h4v12h-4z" fill="#ffc477"/><path d="m51 57v3l-2 1h-6v-2a2.006 2.006 0 0 1 2-2z" fill="#3d9ae2"/><path d="m47 45h4v12h-4z" fill="#ffb655"/><path d="m46 34v2.5a1.5 1.5 0 0 1 -3 0v-2.5z" fill="#ffc477"/><path d="m42 13c0 .34-.02.67-.05 1h-3.95l-3-1v-3l2-1v-2l1-2a9.991 9.991 0 0 1 4 8z" fill="#00ccb3"/><path d="m38 14h3.95a9.989 9.989 0 0 1 -2.55 5.72l-3.4-2.72h-2v2l-1 1v2.95c-.33.03-.66.05-1 .05a9.992 9.992 0 0 1 -9.04-5.73l4.04 1.73h3v-2l-2-1v-2l3-2v-2l-1-1v-3l-1.71-2.28a9.769 9.769 0 0 1 3.71-.72 9.991 9.991 0 0 1 6 2l-1 2v2l-2 1v3z" fill="#5aaae7"/><path d="m39.4 19.72a9.978 9.978 0 0 1 -6.4 3.23v-2.95l1-1v-2h2z" fill="#00ccb3"/><path d="m37 45v1.5a1.5 1.5 0 0 1 -3 0v-1.5z" fill="#ffc477"/><path d="m37 61h-5v-3h2a3 3 0 0 1 3 3z" fill="#ff6243"/><path d="m32 58h-2-1v-10h1 4 1v10h-1z" fill="#898890"/><path d="m35 34v1a3 3 0 0 1 -6 0v-1h2l1-1 1 1z" fill="#ffc477"/><path d="m35 33v1h-2l-1-1-1 1h-2v-1a3 3 0 0 1 6 0z" fill="#57565c"/><path d="m34.92 38.94-.14.18a3 3 0 0 1 -5.56 0l-.14-.18a5.005 5.005 0 0 1 5.84 0z" fill="#ffb655"/><path d="m32 58v3h-5a3 3 0 0 1 3-3z" fill="#ff5023"/><path d="m31 10v2l-3 2v2l2 1v2h-3l-4.04-1.73a9.831 9.831 0 0 1 -.96-4.27 9.983 9.983 0 0 1 6.29-9.28l1.71 2.28v3z" fill="#00ccb3"/><path d="m37 45v-2a5.022 5.022 0 0 0 -1.46-3.54 5.172 5.172 0 0 0 -.62-.52l-.14.18a3 3 0 0 1 -5.56 0l-.14-.18a5 5 0 0 0 -2.08 4.06v2h3v1.5a1.5 1.5 0 0 1 -1.5 1.5h7a1.5 1.5 0 0 1 -1.5-1.5v-1.5z" fill="#ff5023"/><path d="m30 45v1.5a1.5 1.5 0 0 1 -3 0v-1.5z" fill="#ffc477"/><path d="m21 59v2h-6l-2-1v-3h6a2.006 2.006 0 0 1 2 2z" fill="#ee8700"/><path d="m21 35v2.5a1.5 1.5 0 0 1 -3 0v-2.5z" fill="#ffc477"/><path d="m8 35h-3v-8a6 6 0 0 1 6-6l2 2 2-2a6 6 0 0 1 6 6v8h-3v4h-10z" fill="#3d9ae2"/><path d="m13 57h-5v-18h10v18z" fill="#787680"/><path d="m15 18.46v1a3.974 3.974 0 0 1 -4 0v-1a7.971 7.971 0 0 0 4 0z" fill="#ffa733"/><path d="m13 57v3l-2 1h-6v-2a2.006 2.006 0 0 1 2-2z" fill="#cc7400"/><path d="m8 35v2.5a1.5 1.5 0 0 1 -3 0v-2.5z" fill="#ffc477"/><path d="m56 17v-5a5 5 0 1 0 -10 0v5a3 3 0 0 0 -.28 5.98 5.715 5.715 0 0 1 2.29-.89l.16-.03a18.089 18.089 0 0 1 5.66 0l.16.03a5.715 5.715 0 0 1 2.29.89 3 3 0 0 0 -.28-5.98zm-1-1h-8v-2h1.34a4 4 0 0 0 2.83-1.17l.83-.83 1.41 1.41a2.006 2.006 0 0 0 1.42.59h.17z" fill="#57565c"/><path d="m53.99 22.09c-.07 1.06-1.38 1.91-2.99 1.91s-2.92-.85-2.99-1.91l.16-.03a2.955 2.955 0 0 0 .79-1.62 2.119 2.119 0 0 0 .04-.44 2.76 2.76 0 0 0 -.06-.57 7.994 7.994 0 0 0 4.12 0 2.76 2.76 0 0 0 -.06.57 2.119 2.119 0 0 0 .04.44 2.955 2.955 0 0 0 .79 1.62z" fill="#ffb655"/><path d="m53 20a2.119 2.119 0 0 0 .04.44 4 4 0 0 1 -4.08 0 2.119 2.119 0 0 0 .04-.44 2.76 2.76 0 0 0 -.06-.57 7.994 7.994 0 0 0 4.12 0 2.76 2.76 0 0 0 -.06.57z" fill="#ffa733"/><path d="m18 11v2h-1.17a2.006 2.006 0 0 1 -1.42-.59l-1.41-1.41-.83.83a4 4 0 0 1 -2.83 1.17h-2.34v-2a5 5 0 0 1 10 0z" fill="#57565c"/><path d="m17 13v2a3.994 3.994 0 0 1 -6 3.46 4.225 4.225 0 0 1 -.83-.63 4.025 4.025 0 0 1 -1.17-2.83v-2h1.34a4 4 0 0 0 2.83-1.17l.83-.83 1.41 1.41a2.006 2.006 0 0 0 1.42.59z" fill="#ffc477"/><path d="m8 39h10v2h-10z" fill="#57565c"/><path d="m29 48h6v2h-6z" fill="#787680"/><path d="m55 14v2a4 4 0 0 1 -6.06 3.43 7.451 7.451 0 0 1 -.77-.6 4.025 4.025 0 0 1 -1.17-2.83v-2h1.34a4 4 0 0 0 2.83-1.17l.83-.83 1.41 1.41a2.006 2.006 0 0 0 1.42.59z" fill="#ffc477"/><path d="m47 45h4v2h-4z" fill="#ffa733"/><path d="m51 45h4v2h-4z" fill="#ffb655"/><path d="m12 42h2v15h-2z" fill="#57565c"/><path d="m31 51h2v7h-2z" fill="#787680"/></svg>
